ISO-10303-21;
HEADER;
/* Generated by software containing ST-Developer
 * from STEP Tools, Inc. (www.steptools.com) 
 */

FILE_DESCRIPTION(
/* description */ (''),
/* implementation_level */ '2;1');

FILE_NAME(
/* name */ 'SpeedTestStructure.step',
/* time_stamp */ '2025-11-24T00:24:44+02:00',
/* author */ (''),
/* organization */ (''),
/* preprocessor_version */ 'ST-DEVELOPER v20.1',
/* originating_system */ 'Autodesk Translation Framework v14.21.0.0',
/* authorisation */ '');

FILE_SCHEMA (('AUTOMOTIVE_DESIGN { 1 0 10303 214 3 1 1 }'));
ENDSEC;

DATA;
#10=MECHANICAL_DESIGN_GEOMETRIC_PRESENTATION_REPRESENTATION('',(#13),#1343);
#11=SHAPE_REPRESENTATION_RELATIONSHIP('SRR','None',#1350,#12);
#12=ADVANCED_BREP_SHAPE_REPRESENTATION('',(#14),#1342);
#13=STYLED_ITEM('',(#1359),#14);
#14=MANIFOLD_SOLID_BREP('Body1',#783);
#15=PLANE('',#800);
#16=PLANE('',#804);
#17=PLANE('',#808);
#18=PLANE('',#812);
#19=PLANE('',#816);
#20=PLANE('',#820);
#21=PLANE('',#824);
#22=PLANE('',#828);
#23=PLANE('',#829);
#24=PLANE('',#861);
#25=PLANE('',#864);
#26=PLANE('',#865);
#27=PLANE('',#866);
#28=PLANE('',#867);
#29=PLANE('',#868);
#30=PLANE('',#869);
#31=PLANE('',#870);
#32=PLANE('',#871);
#33=PLANE('',#872);
#34=PLANE('',#873);
#35=PLANE('',#874);
#36=FACE_OUTER_BOUND('',#76,.T.);
#37=FACE_OUTER_BOUND('',#77,.T.);
#38=FACE_OUTER_BOUND('',#78,.T.);
#39=FACE_OUTER_BOUND('',#79,.T.);
#40=FACE_OUTER_BOUND('',#80,.T.);
#41=FACE_OUTER_BOUND('',#81,.T.);
#42=FACE_OUTER_BOUND('',#82,.T.);
#43=FACE_OUTER_BOUND('',#83,.T.);
#44=FACE_OUTER_BOUND('',#84,.T.);
#45=FACE_OUTER_BOUND('',#85,.T.);
#46=FACE_OUTER_BOUND('',#86,.T.);
#47=FACE_OUTER_BOUND('',#87,.T.);
#48=FACE_OUTER_BOUND('',#88,.T.);
#49=FACE_OUTER_BOUND('',#89,.T.);
#50=FACE_OUTER_BOUND('',#90,.T.);
#51=FACE_OUTER_BOUND('',#91,.T.);
#52=FACE_OUTER_BOUND('',#92,.T.);
#53=FACE_OUTER_BOUND('',#93,.T.);
#54=FACE_OUTER_BOUND('',#94,.T.);
#55=FACE_OUTER_BOUND('',#95,.T.);
#56=FACE_OUTER_BOUND('',#96,.T.);
#57=FACE_OUTER_BOUND('',#97,.T.);
#58=FACE_OUTER_BOUND('',#98,.T.);
#59=FACE_OUTER_BOUND('',#99,.T.);
#60=FACE_OUTER_BOUND('',#100,.T.);
#61=FACE_OUTER_BOUND('',#101,.T.);
#62=FACE_OUTER_BOUND('',#102,.T.);
#63=FACE_OUTER_BOUND('',#103,.T.);
#64=FACE_OUTER_BOUND('',#104,.T.);
#65=FACE_OUTER_BOUND('',#105,.T.);
#66=FACE_OUTER_BOUND('',#106,.T.);
#67=FACE_OUTER_BOUND('',#107,.T.);
#68=FACE_OUTER_BOUND('',#108,.T.);
#69=FACE_OUTER_BOUND('',#109,.T.);
#70=FACE_OUTER_BOUND('',#110,.T.);
#71=FACE_OUTER_BOUND('',#111,.T.);
#72=FACE_OUTER_BOUND('',#112,.T.);
#73=FACE_OUTER_BOUND('',#113,.T.);
#74=FACE_OUTER_BOUND('',#114,.T.);
#75=FACE_OUTER_BOUND('',#115,.T.);
#76=EDGE_LOOP('',(#496,#497,#498,#499));
#77=EDGE_LOOP('',(#500,#501,#502,#503));
#78=EDGE_LOOP('',(#504,#505,#506,#507));
#79=EDGE_LOOP('',(#508,#509,#510,#511));
#80=EDGE_LOOP('',(#512,#513,#514,#515));
#81=EDGE_LOOP('',(#516,#517,#518,#519));
#82=EDGE_LOOP('',(#520,#521,#522,#523));
#83=EDGE_LOOP('',(#524,#525,#526,#527));
#84=EDGE_LOOP('',(#528,#529,#530,#531));
#85=EDGE_LOOP('',(#532,#533,#534,#535));
#86=EDGE_LOOP('',(#536,#537,#538,#539));
#87=EDGE_LOOP('',(#540,#541,#542,#543));
#88=EDGE_LOOP('',(#544,#545,#546,#547));
#89=EDGE_LOOP('',(#548,#549,#550,#551));
#90=EDGE_LOOP('',(#552,#553,#554,#555));
#91=EDGE_LOOP('',(#556,#557,#558,#559));
#92=EDGE_LOOP('',(#560,#561,#562,#563,#564,#565,#566,#567,#568,#569,#570,
#571,#572,#573,#574,#575,#576,#577,#578,#579,#580,#581,#582,#583,#584,#585,
#586,#587,#588,#589,#590,#591,#592,#593,#594,#595,#596,#597));
#93=EDGE_LOOP('',(#598,#599,#600,#601));
#94=EDGE_LOOP('',(#602,#603,#604,#605));
#95=EDGE_LOOP('',(#606,#607,#608,#609));
#96=EDGE_LOOP('',(#610,#611,#612,#613));
#97=EDGE_LOOP('',(#614,#615,#616,#617));
#98=EDGE_LOOP('',(#618,#619,#620,#621));
#99=EDGE_LOOP('',(#622,#623,#624,#625));
#100=EDGE_LOOP('',(#626,#627,#628,#629));
#101=EDGE_LOOP('',(#630,#631,#632,#633));
#102=EDGE_LOOP('',(#634,#635,#636,#637));
#103=EDGE_LOOP('',(#638,#639,#640,#641));
#104=EDGE_LOOP('',(#642,#643,#644,#645));
#105=EDGE_LOOP('',(#646,#647,#648,#649));
#106=EDGE_LOOP('',(#650,#651,#652,#653));
#107=EDGE_LOOP('',(#654,#655,#656,#657));
#108=EDGE_LOOP('',(#658,#659,#660,#661));
#109=EDGE_LOOP('',(#662,#663,#664,#665));
#110=EDGE_LOOP('',(#666,#667,#668,#669));
#111=EDGE_LOOP('',(#670,#671,#672,#673));
#112=EDGE_LOOP('',(#674,#675,#676,#677));
#113=EDGE_LOOP('',(#678,#679,#680,#681));
#114=EDGE_LOOP('',(#682,#683,#684,#685));
#115=EDGE_LOOP('',(#686,#687,#688,#689,#690,#691,#692,#693,#694,#695,#696,
#697,#698,#699,#700,#701,#702,#703,#704,#705,#706,#707,#708,#709,#710,#711,
#712,#713,#714,#715,#716,#717,#718,#719,#720,#721,#722,#723));
#116=LINE('',#1115,#192);
#117=LINE('',#1118,#193);
#118=LINE('',#1121,#194);
#119=LINE('',#1123,#195);
#120=LINE('',#1124,#196);
#121=LINE('',#1130,#197);
#122=LINE('',#1133,#198);
#123=LINE('',#1136,#199);
#124=LINE('',#1138,#200);
#125=LINE('',#1139,#201);
#126=LINE('',#1145,#202);
#127=LINE('',#1148,#203);
#128=LINE('',#1151,#204);
#129=LINE('',#1153,#205);
#130=LINE('',#1154,#206);
#131=LINE('',#1160,#207);
#132=LINE('',#1163,#208);
#133=LINE('',#1166,#209);
#134=LINE('',#1168,#210);
#135=LINE('',#1169,#211);
#136=LINE('',#1175,#212);
#137=LINE('',#1178,#213);
#138=LINE('',#1181,#214);
#139=LINE('',#1183,#215);
#140=LINE('',#1184,#216);
#141=LINE('',#1190,#217);
#142=LINE('',#1193,#218);
#143=LINE('',#1196,#219);
#144=LINE('',#1198,#220);
#145=LINE('',#1199,#221);
#146=LINE('',#1205,#222);
#147=LINE('',#1208,#223);
#148=LINE('',#1211,#224);
#149=LINE('',#1213,#225);
#150=LINE('',#1214,#226);
#151=LINE('',#1220,#227);
#152=LINE('',#1223,#228);
#153=LINE('',#1226,#229);
#154=LINE('',#1228,#230);
#155=LINE('',#1229,#231);
#156=LINE('',#1234,#232);
#157=LINE('',#1237,#233);
#158=LINE('',#1240,#234);
#159=LINE('',#1243,#235);
#160=LINE('',#1246,#236);
#161=LINE('',#1249,#237);
#162=LINE('',#1252,#238);
#163=LINE('',#1255,#239);
#164=LINE('',#1259,#240);
#165=LINE('',#1263,#241);
#166=LINE('',#1266,#242);
#167=LINE('',#1270,#243);
#168=LINE('',#1274,#244);
#169=LINE('',#1278,#245);
#170=LINE('',#1282,#246);
#171=LINE('',#1286,#247);
#172=LINE('',#1290,#248);
#173=LINE('',#1294,#249);
#174=LINE('',#1298,#250);
#175=LINE('',#1303,#251);
#176=LINE('',#1304,#252);
#177=LINE('',#1309,#253);
#178=LINE('',#1310,#254);
#179=LINE('',#1313,#255);
#180=LINE('',#1314,#256);
#181=LINE('',#1318,#257);
#182=LINE('',#1320,#258);
#183=LINE('',#1322,#259);
#184=LINE('',#1324,#260);
#185=LINE('',#1326,#261);
#186=LINE('',#1328,#262);
#187=LINE('',#1330,#263);
#188=LINE('',#1332,#264);
#189=LINE('',#1334,#265);
#190=LINE('',#1336,#266);
#191=LINE('',#1338,#267);
#192=VECTOR('',#881,10.);
#193=VECTOR('',#884,10.);
#194=VECTOR('',#887,10.);
#195=VECTOR('',#888,10.);
#196=VECTOR('',#889,10.);
#197=VECTOR('',#894,10.);
#198=VECTOR('',#897,10.);
#199=VECTOR('',#900,10.);
#200=VECTOR('',#901,10.);
#201=VECTOR('',#902,10.);
#202=VECTOR('',#907,10.);
#203=VECTOR('',#910,10.);
#204=VECTOR('',#913,10.);
#205=VECTOR('',#914,10.);
#206=VECTOR('',#915,10.);
#207=VECTOR('',#920,10.);
#208=VECTOR('',#923,10.);
#209=VECTOR('',#926,10.);
#210=VECTOR('',#927,10.);
#211=VECTOR('',#928,10.);
#212=VECTOR('',#933,10.);
#213=VECTOR('',#936,10.);
#214=VECTOR('',#939,10.);
#215=VECTOR('',#940,10.);
#216=VECTOR('',#941,10.);
#217=VECTOR('',#946,10.);
#218=VECTOR('',#949,10.);
#219=VECTOR('',#952,10.);
#220=VECTOR('',#953,10.);
#221=VECTOR('',#954,10.);
#222=VECTOR('',#959,10.);
#223=VECTOR('',#962,10.);
#224=VECTOR('',#965,10.);
#225=VECTOR('',#966,10.);
#226=VECTOR('',#967,10.);
#227=VECTOR('',#972,10.);
#228=VECTOR('',#975,10.);
#229=VECTOR('',#978,10.);
#230=VECTOR('',#979,10.);
#231=VECTOR('',#980,10.);
#232=VECTOR('',#985,10.);
#233=VECTOR('',#988,10.);
#234=VECTOR('',#991,10.);
#235=VECTOR('',#994,10.);
#236=VECTOR('',#997,10.);
#237=VECTOR('',#1000,10.);
#238=VECTOR('',#1003,10.);
#239=VECTOR('',#1006,10.);
#240=VECTOR('',#1009,10.);
#241=VECTOR('',#1012,10.);
#242=VECTOR('',#1015,10.);
#243=VECTOR('',#1020,10.);
#244=VECTOR('',#1025,10.);
#245=VECTOR('',#1030,10.);
#246=VECTOR('',#1035,10.);
#247=VECTOR('',#1040,10.);
#248=VECTOR('',#1045,10.);
#249=VECTOR('',#1050,10.);
#250=VECTOR('',#1055,10.);
#251=VECTOR('',#1060,10.);
#252=VECTOR('',#1061,10.);
#253=VECTOR('',#1066,10.);
#254=VECTOR('',#1067,10.);
#255=VECTOR('',#1070,10.);
#256=VECTOR('',#1071,10.);
#257=VECTOR('',#1076,10.);
#258=VECTOR('',#1079,10.);
#259=VECTOR('',#1082,10.);
#260=VECTOR('',#1085,10.);
#261=VECTOR('',#1088,10.);
#262=VECTOR('',#1091,10.);
#263=VECTOR('',#1094,10.);
#264=VECTOR('',#1097,10.);
#265=VECTOR('',#1100,10.);
#266=VECTOR('',#1103,10.);
#267=VECTOR('',#1106,10.);
#268=CIRCLE('',#798,5.);
#269=CIRCLE('',#799,5.);
#270=CIRCLE('',#802,5.);
#271=CIRCLE('',#803,5.);
#272=CIRCLE('',#806,5.);
#273=CIRCLE('',#807,5.);
#274=CIRCLE('',#810,5.);
#275=CIRCLE('',#811,5.);
#276=CIRCLE('',#814,5.);
#277=CIRCLE('',#815,5.);
#278=CIRCLE('',#818,5.);
#279=CIRCLE('',#819,5.);
#280=CIRCLE('',#822,5.);
#281=CIRCLE('',#823,5.);
#282=CIRCLE('',#826,5.);
#283=CIRCLE('',#827,5.);
#284=CIRCLE('',#830,5.);
#285=CIRCLE('',#831,5.);
#286=CIRCLE('',#832,5.);
#287=CIRCLE('',#833,5.);
#288=CIRCLE('',#834,5.);
#289=CIRCLE('',#835,5.);
#290=CIRCLE('',#836,5.);
#291=CIRCLE('',#837,5.);
#292=CIRCLE('',#838,5.);
#293=CIRCLE('',#839,20.);
#294=CIRCLE('',#840,20.);
#295=CIRCLE('',#842,5.);
#296=CIRCLE('',#844,5.);
#297=CIRCLE('',#846,5.);
#298=CIRCLE('',#848,5.);
#299=CIRCLE('',#850,5.);
#300=CIRCLE('',#852,5.);
#301=CIRCLE('',#854,5.);
#302=CIRCLE('',#856,5.);
#303=CIRCLE('',#858,5.);
#304=CIRCLE('',#860,20.);
#305=CIRCLE('',#863,20.);
#306=VERTEX_POINT('',#1111);
#307=VERTEX_POINT('',#1112);
#308=VERTEX_POINT('',#1114);
#309=VERTEX_POINT('',#1116);
#310=VERTEX_POINT('',#1120);
#311=VERTEX_POINT('',#1122);
#312=VERTEX_POINT('',#1126);
#313=VERTEX_POINT('',#1127);
#314=VERTEX_POINT('',#1129);
#315=VERTEX_POINT('',#1131);
#316=VERTEX_POINT('',#1135);
#317=VERTEX_POINT('',#1137);
#318=VERTEX_POINT('',#1141);
#319=VERTEX_POINT('',#1142);
#320=VERTEX_POINT('',#1144);
#321=VERTEX_POINT('',#1146);
#322=VERTEX_POINT('',#1150);
#323=VERTEX_POINT('',#1152);
#324=VERTEX_POINT('',#1156);
#325=VERTEX_POINT('',#1157);
#326=VERTEX_POINT('',#1159);
#327=VERTEX_POINT('',#1161);
#328=VERTEX_POINT('',#1165);
#329=VERTEX_POINT('',#1167);
#330=VERTEX_POINT('',#1171);
#331=VERTEX_POINT('',#1172);
#332=VERTEX_POINT('',#1174);
#333=VERTEX_POINT('',#1176);
#334=VERTEX_POINT('',#1180);
#335=VERTEX_POINT('',#1182);
#336=VERTEX_POINT('',#1186);
#337=VERTEX_POINT('',#1187);
#338=VERTEX_POINT('',#1189);
#339=VERTEX_POINT('',#1191);
#340=VERTEX_POINT('',#1195);
#341=VERTEX_POINT('',#1197);
#342=VERTEX_POINT('',#1201);
#343=VERTEX_POINT('',#1202);
#344=VERTEX_POINT('',#1204);
#345=VERTEX_POINT('',#1206);
#346=VERTEX_POINT('',#1210);
#347=VERTEX_POINT('',#1212);
#348=VERTEX_POINT('',#1216);
#349=VERTEX_POINT('',#1217);
#350=VERTEX_POINT('',#1219);
#351=VERTEX_POINT('',#1221);
#352=VERTEX_POINT('',#1225);
#353=VERTEX_POINT('',#1227);
#354=VERTEX_POINT('',#1231);
#355=VERTEX_POINT('',#1233);
#356=VERTEX_POINT('',#1236);
#357=VERTEX_POINT('',#1239);
#358=VERTEX_POINT('',#1242);
#359=VERTEX_POINT('',#1245);
#360=VERTEX_POINT('',#1248);
#361=VERTEX_POINT('',#1251);
#362=VERTEX_POINT('',#1254);
#363=VERTEX_POINT('',#1256);
#364=VERTEX_POINT('',#1258);
#365=VERTEX_POINT('',#1260);
#366=VERTEX_POINT('',#1262);
#367=VERTEX_POINT('',#1264);
#368=VERTEX_POINT('',#1268);
#369=VERTEX_POINT('',#1272);
#370=VERTEX_POINT('',#1276);
#371=VERTEX_POINT('',#1280);
#372=VERTEX_POINT('',#1284);
#373=VERTEX_POINT('',#1288);
#374=VERTEX_POINT('',#1292);
#375=VERTEX_POINT('',#1296);
#376=VERTEX_POINT('',#1300);
#377=VERTEX_POINT('',#1301);
#378=VERTEX_POINT('',#1306);
#379=VERTEX_POINT('',#1307);
#380=VERTEX_POINT('',#1312);
#381=VERTEX_POINT('',#1316);
#382=EDGE_CURVE('',#306,#307,#268,.T.);
#383=EDGE_CURVE('',#307,#308,#116,.T.);
#384=EDGE_CURVE('',#308,#309,#269,.T.);
#385=EDGE_CURVE('',#309,#306,#117,.T.);
#386=EDGE_CURVE('',#310,#307,#118,.T.);
#387=EDGE_CURVE('',#311,#310,#119,.T.);
#388=EDGE_CURVE('',#311,#308,#120,.T.);
#389=EDGE_CURVE('',#312,#313,#270,.T.);
#390=EDGE_CURVE('',#313,#314,#121,.T.);
#391=EDGE_CURVE('',#314,#315,#271,.T.);
#392=EDGE_CURVE('',#315,#312,#122,.T.);
#393=EDGE_CURVE('',#316,#313,#123,.T.);
#394=EDGE_CURVE('',#317,#316,#124,.T.);
#395=EDGE_CURVE('',#317,#314,#125,.T.);
#396=EDGE_CURVE('',#318,#319,#272,.T.);
#397=EDGE_CURVE('',#319,#320,#126,.T.);
#398=EDGE_CURVE('',#320,#321,#273,.T.);
#399=EDGE_CURVE('',#321,#318,#127,.T.);
#400=EDGE_CURVE('',#322,#319,#128,.T.);
#401=EDGE_CURVE('',#323,#322,#129,.T.);
#402=EDGE_CURVE('',#323,#320,#130,.T.);
#403=EDGE_CURVE('',#324,#325,#274,.T.);
#404=EDGE_CURVE('',#325,#326,#131,.T.);
#405=EDGE_CURVE('',#326,#327,#275,.T.);
#406=EDGE_CURVE('',#327,#324,#132,.T.);
#407=EDGE_CURVE('',#328,#325,#133,.T.);
#408=EDGE_CURVE('',#329,#328,#134,.T.);
#409=EDGE_CURVE('',#329,#326,#135,.T.);
#410=EDGE_CURVE('',#330,#331,#276,.T.);
#411=EDGE_CURVE('',#331,#332,#136,.T.);
#412=EDGE_CURVE('',#332,#333,#277,.T.);
#413=EDGE_CURVE('',#333,#330,#137,.T.);
#414=EDGE_CURVE('',#334,#331,#138,.T.);
#415=EDGE_CURVE('',#335,#334,#139,.T.);
#416=EDGE_CURVE('',#335,#332,#140,.T.);
#417=EDGE_CURVE('',#336,#337,#278,.T.);
#418=EDGE_CURVE('',#337,#338,#141,.T.);
#419=EDGE_CURVE('',#338,#339,#279,.T.);
#420=EDGE_CURVE('',#339,#336,#142,.T.);
#421=EDGE_CURVE('',#340,#337,#143,.T.);
#422=EDGE_CURVE('',#341,#340,#144,.T.);
#423=EDGE_CURVE('',#341,#338,#145,.T.);
#424=EDGE_CURVE('',#342,#343,#280,.T.);
#425=EDGE_CURVE('',#343,#344,#146,.T.);
#426=EDGE_CURVE('',#344,#345,#281,.T.);
#427=EDGE_CURVE('',#345,#342,#147,.T.);
#428=EDGE_CURVE('',#346,#343,#148,.T.);
#429=EDGE_CURVE('',#347,#346,#149,.T.);
#430=EDGE_CURVE('',#347,#344,#150,.T.);
#431=EDGE_CURVE('',#348,#349,#282,.T.);
#432=EDGE_CURVE('',#349,#350,#151,.T.);
#433=EDGE_CURVE('',#350,#351,#283,.T.);
#434=EDGE_CURVE('',#351,#348,#152,.T.);
#435=EDGE_CURVE('',#352,#349,#153,.T.);
#436=EDGE_CURVE('',#353,#352,#154,.T.);
#437=EDGE_CURVE('',#353,#350,#155,.T.);
#438=EDGE_CURVE('',#310,#354,#284,.T.);
#439=EDGE_CURVE('',#355,#306,#156,.T.);
#440=EDGE_CURVE('',#316,#355,#285,.T.);
#441=EDGE_CURVE('',#356,#312,#157,.T.);
#442=EDGE_CURVE('',#322,#356,#286,.T.);
#443=EDGE_CURVE('',#357,#318,#158,.T.);
#444=EDGE_CURVE('',#328,#357,#287,.T.);
#445=EDGE_CURVE('',#358,#324,#159,.T.);
#446=EDGE_CURVE('',#334,#358,#288,.T.);
#447=EDGE_CURVE('',#359,#330,#160,.T.);
#448=EDGE_CURVE('',#340,#359,#289,.T.);
#449=EDGE_CURVE('',#360,#336,#161,.T.);
#450=EDGE_CURVE('',#346,#360,#290,.T.);
#451=EDGE_CURVE('',#361,#342,#162,.T.);
#452=EDGE_CURVE('',#352,#361,#291,.T.);
#453=EDGE_CURVE('',#362,#348,#163,.T.);
#454=EDGE_CURVE('',#363,#362,#292,.T.);
#455=EDGE_CURVE('',#364,#363,#164,.T.);
#456=EDGE_CURVE('',#365,#364,#293,.T.);
#457=EDGE_CURVE('',#366,#365,#165,.T.);
#458=EDGE_CURVE('',#367,#366,#294,.T.);
#459=EDGE_CURVE('',#354,#367,#166,.T.);
#460=EDGE_CURVE('',#368,#311,#295,.T.);
#461=EDGE_CURVE('',#354,#368,#167,.T.);
#462=EDGE_CURVE('',#369,#317,#296,.T.);
#463=EDGE_CURVE('',#355,#369,#168,.T.);
#464=EDGE_CURVE('',#370,#323,#297,.T.);
#465=EDGE_CURVE('',#356,#370,#169,.T.);
#466=EDGE_CURVE('',#371,#329,#298,.T.);
#467=EDGE_CURVE('',#357,#371,#170,.T.);
#468=EDGE_CURVE('',#372,#335,#299,.T.);
#469=EDGE_CURVE('',#358,#372,#171,.T.);
#470=EDGE_CURVE('',#373,#341,#300,.T.);
#471=EDGE_CURVE('',#359,#373,#172,.T.);
#472=EDGE_CURVE('',#374,#347,#301,.T.);
#473=EDGE_CURVE('',#360,#374,#173,.T.);
#474=EDGE_CURVE('',#375,#353,#302,.T.);
#475=EDGE_CURVE('',#361,#375,#174,.T.);
#476=EDGE_CURVE('',#376,#377,#303,.T.);
#477=EDGE_CURVE('',#377,#363,#175,.T.);
#478=EDGE_CURVE('',#362,#376,#176,.T.);
#479=EDGE_CURVE('',#378,#379,#304,.T.);
#480=EDGE_CURVE('',#379,#367,#177,.T.);
#481=EDGE_CURVE('',#366,#378,#178,.T.);
#482=EDGE_CURVE('',#380,#365,#179,.T.);
#483=EDGE_CURVE('',#380,#378,#180,.T.);
#484=EDGE_CURVE('',#381,#380,#305,.T.);
#485=EDGE_CURVE('',#364,#381,#181,.T.);
#486=EDGE_CURVE('',#339,#374,#182,.T.);
#487=EDGE_CURVE('',#345,#375,#183,.T.);
#488=EDGE_CURVE('',#351,#376,#184,.T.);
#489=EDGE_CURVE('',#377,#381,#185,.T.);
#490=EDGE_CURVE('',#379,#368,#186,.T.);
#491=EDGE_CURVE('',#309,#369,#187,.T.);
#492=EDGE_CURVE('',#315,#370,#188,.T.);
#493=EDGE_CURVE('',#321,#371,#189,.T.);
#494=EDGE_CURVE('',#327,#372,#190,.T.);
#495=EDGE_CURVE('',#333,#373,#191,.T.);
#496=ORIENTED_EDGE('',*,*,#382,.T.);
#497=ORIENTED_EDGE('',*,*,#383,.T.);
#498=ORIENTED_EDGE('',*,*,#384,.T.);
#499=ORIENTED_EDGE('',*,*,#385,.T.);
#500=ORIENTED_EDGE('',*,*,#383,.F.);
#501=ORIENTED_EDGE('',*,*,#386,.F.);
#502=ORIENTED_EDGE('',*,*,#387,.F.);
#503=ORIENTED_EDGE('',*,*,#388,.T.);
#504=ORIENTED_EDGE('',*,*,#389,.T.);
#505=ORIENTED_EDGE('',*,*,#390,.T.);
#506=ORIENTED_EDGE('',*,*,#391,.T.);
#507=ORIENTED_EDGE('',*,*,#392,.T.);
#508=ORIENTED_EDGE('',*,*,#390,.F.);
#509=ORIENTED_EDGE('',*,*,#393,.F.);
#510=ORIENTED_EDGE('',*,*,#394,.F.);
#511=ORIENTED_EDGE('',*,*,#395,.T.);
#512=ORIENTED_EDGE('',*,*,#396,.T.);
#513=ORIENTED_EDGE('',*,*,#397,.T.);
#514=ORIENTED_EDGE('',*,*,#398,.T.);
#515=ORIENTED_EDGE('',*,*,#399,.T.);
#516=ORIENTED_EDGE('',*,*,#397,.F.);
#517=ORIENTED_EDGE('',*,*,#400,.F.);
#518=ORIENTED_EDGE('',*,*,#401,.F.);
#519=ORIENTED_EDGE('',*,*,#402,.T.);
#520=ORIENTED_EDGE('',*,*,#403,.T.);
#521=ORIENTED_EDGE('',*,*,#404,.T.);
#522=ORIENTED_EDGE('',*,*,#405,.T.);
#523=ORIENTED_EDGE('',*,*,#406,.T.);
#524=ORIENTED_EDGE('',*,*,#404,.F.);
#525=ORIENTED_EDGE('',*,*,#407,.F.);
#526=ORIENTED_EDGE('',*,*,#408,.F.);
#527=ORIENTED_EDGE('',*,*,#409,.T.);
#528=ORIENTED_EDGE('',*,*,#410,.T.);
#529=ORIENTED_EDGE('',*,*,#411,.T.);
#530=ORIENTED_EDGE('',*,*,#412,.T.);
#531=ORIENTED_EDGE('',*,*,#413,.T.);
#532=ORIENTED_EDGE('',*,*,#411,.F.);
#533=ORIENTED_EDGE('',*,*,#414,.F.);
#534=ORIENTED_EDGE('',*,*,#415,.F.);
#535=ORIENTED_EDGE('',*,*,#416,.T.);
#536=ORIENTED_EDGE('',*,*,#417,.T.);
#537=ORIENTED_EDGE('',*,*,#418,.T.);
#538=ORIENTED_EDGE('',*,*,#419,.T.);
#539=ORIENTED_EDGE('',*,*,#420,.T.);
#540=ORIENTED_EDGE('',*,*,#418,.F.);
#541=ORIENTED_EDGE('',*,*,#421,.F.);
#542=ORIENTED_EDGE('',*,*,#422,.F.);
#543=ORIENTED_EDGE('',*,*,#423,.T.);
#544=ORIENTED_EDGE('',*,*,#424,.T.);
#545=ORIENTED_EDGE('',*,*,#425,.T.);
#546=ORIENTED_EDGE('',*,*,#426,.T.);
#547=ORIENTED_EDGE('',*,*,#427,.T.);
#548=ORIENTED_EDGE('',*,*,#425,.F.);
#549=ORIENTED_EDGE('',*,*,#428,.F.);
#550=ORIENTED_EDGE('',*,*,#429,.F.);
#551=ORIENTED_EDGE('',*,*,#430,.T.);
#552=ORIENTED_EDGE('',*,*,#431,.T.);
#553=ORIENTED_EDGE('',*,*,#432,.T.);
#554=ORIENTED_EDGE('',*,*,#433,.T.);
#555=ORIENTED_EDGE('',*,*,#434,.T.);
#556=ORIENTED_EDGE('',*,*,#432,.F.);
#557=ORIENTED_EDGE('',*,*,#435,.F.);
#558=ORIENTED_EDGE('',*,*,#436,.F.);
#559=ORIENTED_EDGE('',*,*,#437,.T.);
#560=ORIENTED_EDGE('',*,*,#438,.F.);
#561=ORIENTED_EDGE('',*,*,#386,.T.);
#562=ORIENTED_EDGE('',*,*,#382,.F.);
#563=ORIENTED_EDGE('',*,*,#439,.F.);
#564=ORIENTED_EDGE('',*,*,#440,.F.);
#565=ORIENTED_EDGE('',*,*,#393,.T.);
#566=ORIENTED_EDGE('',*,*,#389,.F.);
#567=ORIENTED_EDGE('',*,*,#441,.F.);
#568=ORIENTED_EDGE('',*,*,#442,.F.);
#569=ORIENTED_EDGE('',*,*,#400,.T.);
#570=ORIENTED_EDGE('',*,*,#396,.F.);
#571=ORIENTED_EDGE('',*,*,#443,.F.);
#572=ORIENTED_EDGE('',*,*,#444,.F.);
#573=ORIENTED_EDGE('',*,*,#407,.T.);
#574=ORIENTED_EDGE('',*,*,#403,.F.);
#575=ORIENTED_EDGE('',*,*,#445,.F.);
#576=ORIENTED_EDGE('',*,*,#446,.F.);
#577=ORIENTED_EDGE('',*,*,#414,.T.);
#578=ORIENTED_EDGE('',*,*,#410,.F.);
#579=ORIENTED_EDGE('',*,*,#447,.F.);
#580=ORIENTED_EDGE('',*,*,#448,.F.);
#581=ORIENTED_EDGE('',*,*,#421,.T.);
#582=ORIENTED_EDGE('',*,*,#417,.F.);
#583=ORIENTED_EDGE('',*,*,#449,.F.);
#584=ORIENTED_EDGE('',*,*,#450,.F.);
#585=ORIENTED_EDGE('',*,*,#428,.T.);
#586=ORIENTED_EDGE('',*,*,#424,.F.);
#587=ORIENTED_EDGE('',*,*,#451,.F.);
#588=ORIENTED_EDGE('',*,*,#452,.F.);
#589=ORIENTED_EDGE('',*,*,#435,.T.);
#590=ORIENTED_EDGE('',*,*,#431,.F.);
#591=ORIENTED_EDGE('',*,*,#453,.F.);
#592=ORIENTED_EDGE('',*,*,#454,.F.);
#593=ORIENTED_EDGE('',*,*,#455,.F.);
#594=ORIENTED_EDGE('',*,*,#456,.F.);
#595=ORIENTED_EDGE('',*,*,#457,.F.);
#596=ORIENTED_EDGE('',*,*,#458,.F.);
#597=ORIENTED_EDGE('',*,*,#459,.F.);
#598=ORIENTED_EDGE('',*,*,#460,.T.);
#599=ORIENTED_EDGE('',*,*,#387,.T.);
#600=ORIENTED_EDGE('',*,*,#438,.T.);
#601=ORIENTED_EDGE('',*,*,#461,.T.);
#602=ORIENTED_EDGE('',*,*,#462,.T.);
#603=ORIENTED_EDGE('',*,*,#394,.T.);
#604=ORIENTED_EDGE('',*,*,#440,.T.);
#605=ORIENTED_EDGE('',*,*,#463,.T.);
#606=ORIENTED_EDGE('',*,*,#464,.T.);
#607=ORIENTED_EDGE('',*,*,#401,.T.);
#608=ORIENTED_EDGE('',*,*,#442,.T.);
#609=ORIENTED_EDGE('',*,*,#465,.T.);
#610=ORIENTED_EDGE('',*,*,#466,.T.);
#611=ORIENTED_EDGE('',*,*,#408,.T.);
#612=ORIENTED_EDGE('',*,*,#444,.T.);
#613=ORIENTED_EDGE('',*,*,#467,.T.);
#614=ORIENTED_EDGE('',*,*,#468,.T.);
#615=ORIENTED_EDGE('',*,*,#415,.T.);
#616=ORIENTED_EDGE('',*,*,#446,.T.);
#617=ORIENTED_EDGE('',*,*,#469,.T.);
#618=ORIENTED_EDGE('',*,*,#470,.T.);
#619=ORIENTED_EDGE('',*,*,#422,.T.);
#620=ORIENTED_EDGE('',*,*,#448,.T.);
#621=ORIENTED_EDGE('',*,*,#471,.T.);
#622=ORIENTED_EDGE('',*,*,#472,.T.);
#623=ORIENTED_EDGE('',*,*,#429,.T.);
#624=ORIENTED_EDGE('',*,*,#450,.T.);
#625=ORIENTED_EDGE('',*,*,#473,.T.);
#626=ORIENTED_EDGE('',*,*,#474,.T.);
#627=ORIENTED_EDGE('',*,*,#436,.T.);
#628=ORIENTED_EDGE('',*,*,#452,.T.);
#629=ORIENTED_EDGE('',*,*,#475,.T.);
#630=ORIENTED_EDGE('',*,*,#476,.T.);
#631=ORIENTED_EDGE('',*,*,#477,.T.);
#632=ORIENTED_EDGE('',*,*,#454,.T.);
#633=ORIENTED_EDGE('',*,*,#478,.T.);
#634=ORIENTED_EDGE('',*,*,#479,.T.);
#635=ORIENTED_EDGE('',*,*,#480,.T.);
#636=ORIENTED_EDGE('',*,*,#458,.T.);
#637=ORIENTED_EDGE('',*,*,#481,.T.);
#638=ORIENTED_EDGE('',*,*,#481,.F.);
#639=ORIENTED_EDGE('',*,*,#457,.T.);
#640=ORIENTED_EDGE('',*,*,#482,.F.);
#641=ORIENTED_EDGE('',*,*,#483,.T.);
#642=ORIENTED_EDGE('',*,*,#484,.T.);
#643=ORIENTED_EDGE('',*,*,#482,.T.);
#644=ORIENTED_EDGE('',*,*,#456,.T.);
#645=ORIENTED_EDGE('',*,*,#485,.T.);
#646=ORIENTED_EDGE('',*,*,#420,.F.);
#647=ORIENTED_EDGE('',*,*,#486,.T.);
#648=ORIENTED_EDGE('',*,*,#473,.F.);
#649=ORIENTED_EDGE('',*,*,#449,.T.);
#650=ORIENTED_EDGE('',*,*,#427,.F.);
#651=ORIENTED_EDGE('',*,*,#487,.T.);
#652=ORIENTED_EDGE('',*,*,#475,.F.);
#653=ORIENTED_EDGE('',*,*,#451,.T.);
#654=ORIENTED_EDGE('',*,*,#434,.F.);
#655=ORIENTED_EDGE('',*,*,#488,.T.);
#656=ORIENTED_EDGE('',*,*,#478,.F.);
#657=ORIENTED_EDGE('',*,*,#453,.T.);
#658=ORIENTED_EDGE('',*,*,#477,.F.);
#659=ORIENTED_EDGE('',*,*,#489,.T.);
#660=ORIENTED_EDGE('',*,*,#485,.F.);
#661=ORIENTED_EDGE('',*,*,#455,.T.);
#662=ORIENTED_EDGE('',*,*,#461,.F.);
#663=ORIENTED_EDGE('',*,*,#459,.T.);
#664=ORIENTED_EDGE('',*,*,#480,.F.);
#665=ORIENTED_EDGE('',*,*,#490,.T.);
#666=ORIENTED_EDGE('',*,*,#385,.F.);
#667=ORIENTED_EDGE('',*,*,#491,.T.);
#668=ORIENTED_EDGE('',*,*,#463,.F.);
#669=ORIENTED_EDGE('',*,*,#439,.T.);
#670=ORIENTED_EDGE('',*,*,#392,.F.);
#671=ORIENTED_EDGE('',*,*,#492,.T.);
#672=ORIENTED_EDGE('',*,*,#465,.F.);
#673=ORIENTED_EDGE('',*,*,#441,.T.);
#674=ORIENTED_EDGE('',*,*,#399,.F.);
#675=ORIENTED_EDGE('',*,*,#493,.T.);
#676=ORIENTED_EDGE('',*,*,#467,.F.);
#677=ORIENTED_EDGE('',*,*,#443,.T.);
#678=ORIENTED_EDGE('',*,*,#406,.F.);
#679=ORIENTED_EDGE('',*,*,#494,.T.);
#680=ORIENTED_EDGE('',*,*,#469,.F.);
#681=ORIENTED_EDGE('',*,*,#445,.T.);
#682=ORIENTED_EDGE('',*,*,#413,.F.);
#683=ORIENTED_EDGE('',*,*,#495,.T.);
#684=ORIENTED_EDGE('',*,*,#471,.F.);
#685=ORIENTED_EDGE('',*,*,#447,.T.);
#686=ORIENTED_EDGE('',*,*,#460,.F.);
#687=ORIENTED_EDGE('',*,*,#490,.F.);
#688=ORIENTED_EDGE('',*,*,#479,.F.);
#689=ORIENTED_EDGE('',*,*,#483,.F.);
#690=ORIENTED_EDGE('',*,*,#484,.F.);
#691=ORIENTED_EDGE('',*,*,#489,.F.);
#692=ORIENTED_EDGE('',*,*,#476,.F.);
#693=ORIENTED_EDGE('',*,*,#488,.F.);
#694=ORIENTED_EDGE('',*,*,#433,.F.);
#695=ORIENTED_EDGE('',*,*,#437,.F.);
#696=ORIENTED_EDGE('',*,*,#474,.F.);
#697=ORIENTED_EDGE('',*,*,#487,.F.);
#698=ORIENTED_EDGE('',*,*,#426,.F.);
#699=ORIENTED_EDGE('',*,*,#430,.F.);
#700=ORIENTED_EDGE('',*,*,#472,.F.);
#701=ORIENTED_EDGE('',*,*,#486,.F.);
#702=ORIENTED_EDGE('',*,*,#419,.F.);
#703=ORIENTED_EDGE('',*,*,#423,.F.);
#704=ORIENTED_EDGE('',*,*,#470,.F.);
#705=ORIENTED_EDGE('',*,*,#495,.F.);
#706=ORIENTED_EDGE('',*,*,#412,.F.);
#707=ORIENTED_EDGE('',*,*,#416,.F.);
#708=ORIENTED_EDGE('',*,*,#468,.F.);
#709=ORIENTED_EDGE('',*,*,#494,.F.);
#710=ORIENTED_EDGE('',*,*,#405,.F.);
#711=ORIENTED_EDGE('',*,*,#409,.F.);
#712=ORIENTED_EDGE('',*,*,#466,.F.);
#713=ORIENTED_EDGE('',*,*,#493,.F.);
#714=ORIENTED_EDGE('',*,*,#398,.F.);
#715=ORIENTED_EDGE('',*,*,#402,.F.);
#716=ORIENTED_EDGE('',*,*,#464,.F.);
#717=ORIENTED_EDGE('',*,*,#492,.F.);
#718=ORIENTED_EDGE('',*,*,#391,.F.);
#719=ORIENTED_EDGE('',*,*,#395,.F.);
#720=ORIENTED_EDGE('',*,*,#462,.F.);
#721=ORIENTED_EDGE('',*,*,#491,.F.);
#722=ORIENTED_EDGE('',*,*,#384,.F.);
#723=ORIENTED_EDGE('',*,*,#388,.F.);
#724=CYLINDRICAL_SURFACE('',#797,5.);
#725=CYLINDRICAL_SURFACE('',#801,5.);
#726=CYLINDRICAL_SURFACE('',#805,5.);
#727=CYLINDRICAL_SURFACE('',#809,5.);
#728=CYLINDRICAL_SURFACE('',#813,5.);
#729=CYLINDRICAL_SURFACE('',#817,5.);
#730=CYLINDRICAL_SURFACE('',#821,5.);
#731=CYLINDRICAL_SURFACE('',#825,5.);
#732=CYLINDRICAL_SURFACE('',#841,5.);
#733=CYLINDRICAL_SURFACE('',#843,5.);
#734=CYLINDRICAL_SURFACE('',#845,5.);
#735=CYLINDRICAL_SURFACE('',#847,5.);
#736=CYLINDRICAL_SURFACE('',#849,5.);
#737=CYLINDRICAL_SURFACE('',#851,5.);
#738=CYLINDRICAL_SURFACE('',#853,5.);
#739=CYLINDRICAL_SURFACE('',#855,5.);
#740=CYLINDRICAL_SURFACE('',#857,5.);
#741=CYLINDRICAL_SURFACE('',#859,20.);
#742=CYLINDRICAL_SURFACE('',#862,20.);
#743=ADVANCED_FACE('',(#36),#724,.F.);
#744=ADVANCED_FACE('',(#37),#15,.T.);
#745=ADVANCED_FACE('',(#38),#725,.F.);
#746=ADVANCED_FACE('',(#39),#16,.T.);
#747=ADVANCED_FACE('',(#40),#726,.F.);
#748=ADVANCED_FACE('',(#41),#17,.T.);
#749=ADVANCED_FACE('',(#42),#727,.F.);
#750=ADVANCED_FACE('',(#43),#18,.T.);
#751=ADVANCED_FACE('',(#44),#728,.F.);
#752=ADVANCED_FACE('',(#45),#19,.T.);
#753=ADVANCED_FACE('',(#46),#729,.F.);
#754=ADVANCED_FACE('',(#47),#20,.T.);
#755=ADVANCED_FACE('',(#48),#730,.F.);
#756=ADVANCED_FACE('',(#49),#21,.T.);
#757=ADVANCED_FACE('',(#50),#731,.F.);
#758=ADVANCED_FACE('',(#51),#22,.T.);
#759=ADVANCED_FACE('',(#52),#23,.F.);
#760=ADVANCED_FACE('',(#53),#732,.T.);
#761=ADVANCED_FACE('',(#54),#733,.T.);
#762=ADVANCED_FACE('',(#55),#734,.T.);
#763=ADVANCED_FACE('',(#56),#735,.T.);
#764=ADVANCED_FACE('',(#57),#736,.T.);
#765=ADVANCED_FACE('',(#58),#737,.T.);
#766=ADVANCED_FACE('',(#59),#738,.T.);
#767=ADVANCED_FACE('',(#60),#739,.T.);
#768=ADVANCED_FACE('',(#61),#740,.T.);
#769=ADVANCED_FACE('',(#62),#741,.T.);
#770=ADVANCED_FACE('',(#63),#24,.T.);
#771=ADVANCED_FACE('',(#64),#742,.T.);
#772=ADVANCED_FACE('',(#65),#25,.T.);
#773=ADVANCED_FACE('',(#66),#26,.T.);
#774=ADVANCED_FACE('',(#67),#27,.T.);
#775=ADVANCED_FACE('',(#68),#28,.T.);
#776=ADVANCED_FACE('',(#69),#29,.T.);
#777=ADVANCED_FACE('',(#70),#30,.T.);
#778=ADVANCED_FACE('',(#71),#31,.T.);
#779=ADVANCED_FACE('',(#72),#32,.T.);
#780=ADVANCED_FACE('',(#73),#33,.T.);
#781=ADVANCED_FACE('',(#74),#34,.T.);
#782=ADVANCED_FACE('',(#75),#35,.T.);
#783=CLOSED_SHELL('',(#743,#744,#745,#746,#747,#748,#749,#750,#751,#752,
#753,#754,#755,#756,#757,#758,#759,#760,#761,#762,#763,#764,#765,#766,#767,
#768,#769,#770,#771,#772,#773,#774,#775,#776,#777,#778,#779,#780,#781,#782));
#784=DERIVED_UNIT_ELEMENT(#786,1.);
#785=DERIVED_UNIT_ELEMENT(#1345,-3.);
#786=(
MASS_UNIT()
NAMED_UNIT(*)
SI_UNIT(.KILO.,.GRAM.)
);
#787=DERIVED_UNIT((#784,#785));
#788=MEASURE_REPRESENTATION_ITEM('density measure',
POSITIVE_RATIO_MEASURE(1060.),#787);
#789=PROPERTY_DEFINITION_REPRESENTATION(#794,#791);
#790=PROPERTY_DEFINITION_REPRESENTATION(#795,#792);
#791=REPRESENTATION('material name',(#793),#1342);
#792=REPRESENTATION('density',(#788),#1342);
#793=DESCRIPTIVE_REPRESENTATION_ITEM('ABS Plastic','ABS Plastic');
#794=PROPERTY_DEFINITION('material property','material name',#1352);
#795=PROPERTY_DEFINITION('material property','density of part',#1352);
#796=AXIS2_PLACEMENT_3D('',#1109,#875,#876);
#797=AXIS2_PLACEMENT_3D('',#1110,#877,#878);
#798=AXIS2_PLACEMENT_3D('',#1113,#879,#880);
#799=AXIS2_PLACEMENT_3D('',#1117,#882,#883);
#800=AXIS2_PLACEMENT_3D('',#1119,#885,#886);
#801=AXIS2_PLACEMENT_3D('',#1125,#890,#891);
#802=AXIS2_PLACEMENT_3D('',#1128,#892,#893);
#803=AXIS2_PLACEMENT_3D('',#1132,#895,#896);
#804=AXIS2_PLACEMENT_3D('',#1134,#898,#899);
#805=AXIS2_PLACEMENT_3D('',#1140,#903,#904);
#806=AXIS2_PLACEMENT_3D('',#1143,#905,#906);
#807=AXIS2_PLACEMENT_3D('',#1147,#908,#909);
#808=AXIS2_PLACEMENT_3D('',#1149,#911,#912);
#809=AXIS2_PLACEMENT_3D('',#1155,#916,#917);
#810=AXIS2_PLACEMENT_3D('',#1158,#918,#919);
#811=AXIS2_PLACEMENT_3D('',#1162,#921,#922);
#812=AXIS2_PLACEMENT_3D('',#1164,#924,#925);
#813=AXIS2_PLACEMENT_3D('',#1170,#929,#930);
#814=AXIS2_PLACEMENT_3D('',#1173,#931,#932);
#815=AXIS2_PLACEMENT_3D('',#1177,#934,#935);
#816=AXIS2_PLACEMENT_3D('',#1179,#937,#938);
#817=AXIS2_PLACEMENT_3D('',#1185,#942,#943);
#818=AXIS2_PLACEMENT_3D('',#1188,#944,#945);
#819=AXIS2_PLACEMENT_3D('',#1192,#947,#948);
#820=AXIS2_PLACEMENT_3D('',#1194,#950,#951);
#821=AXIS2_PLACEMENT_3D('',#1200,#955,#956);
#822=AXIS2_PLACEMENT_3D('',#1203,#957,#958);
#823=AXIS2_PLACEMENT_3D('',#1207,#960,#961);
#824=AXIS2_PLACEMENT_3D('',#1209,#963,#964);
#825=AXIS2_PLACEMENT_3D('',#1215,#968,#969);
#826=AXIS2_PLACEMENT_3D('',#1218,#970,#971);
#827=AXIS2_PLACEMENT_3D('',#1222,#973,#974);
#828=AXIS2_PLACEMENT_3D('',#1224,#976,#977);
#829=AXIS2_PLACEMENT_3D('',#1230,#981,#982);
#830=AXIS2_PLACEMENT_3D('',#1232,#983,#984);
#831=AXIS2_PLACEMENT_3D('',#1235,#986,#987);
#832=AXIS2_PLACEMENT_3D('',#1238,#989,#990);
#833=AXIS2_PLACEMENT_3D('',#1241,#992,#993);
#834=AXIS2_PLACEMENT_3D('',#1244,#995,#996);
#835=AXIS2_PLACEMENT_3D('',#1247,#998,#999);
#836=AXIS2_PLACEMENT_3D('',#1250,#1001,#1002);
#837=AXIS2_PLACEMENT_3D('',#1253,#1004,#1005);
#838=AXIS2_PLACEMENT_3D('',#1257,#1007,#1008);
#839=AXIS2_PLACEMENT_3D('',#1261,#1010,#1011);
#840=AXIS2_PLACEMENT_3D('',#1265,#1013,#1014);
#841=AXIS2_PLACEMENT_3D('',#1267,#1016,#1017);
#842=AXIS2_PLACEMENT_3D('',#1269,#1018,#1019);
#843=AXIS2_PLACEMENT_3D('',#1271,#1021,#1022);
#844=AXIS2_PLACEMENT_3D('',#1273,#1023,#1024);
#845=AXIS2_PLACEMENT_3D('',#1275,#1026,#1027);
#846=AXIS2_PLACEMENT_3D('',#1277,#1028,#1029);
#847=AXIS2_PLACEMENT_3D('',#1279,#1031,#1032);
#848=AXIS2_PLACEMENT_3D('',#1281,#1033,#1034);
#849=AXIS2_PLACEMENT_3D('',#1283,#1036,#1037);
#850=AXIS2_PLACEMENT_3D('',#1285,#1038,#1039);
#851=AXIS2_PLACEMENT_3D('',#1287,#1041,#1042);
#852=AXIS2_PLACEMENT_3D('',#1289,#1043,#1044);
#853=AXIS2_PLACEMENT_3D('',#1291,#1046,#1047);
#854=AXIS2_PLACEMENT_3D('',#1293,#1048,#1049);
#855=AXIS2_PLACEMENT_3D('',#1295,#1051,#1052);
#856=AXIS2_PLACEMENT_3D('',#1297,#1053,#1054);
#857=AXIS2_PLACEMENT_3D('',#1299,#1056,#1057);
#858=AXIS2_PLACEMENT_3D('',#1302,#1058,#1059);
#859=AXIS2_PLACEMENT_3D('',#1305,#1062,#1063);
#860=AXIS2_PLACEMENT_3D('',#1308,#1064,#1065);
#861=AXIS2_PLACEMENT_3D('',#1311,#1068,#1069);
#862=AXIS2_PLACEMENT_3D('',#1315,#1072,#1073);
#863=AXIS2_PLACEMENT_3D('',#1317,#1074,#1075);
#864=AXIS2_PLACEMENT_3D('',#1319,#1077,#1078);
#865=AXIS2_PLACEMENT_3D('',#1321,#1080,#1081);
#866=AXIS2_PLACEMENT_3D('',#1323,#1083,#1084);
#867=AXIS2_PLACEMENT_3D('',#1325,#1086,#1087);
#868=AXIS2_PLACEMENT_3D('',#1327,#1089,#1090);
#869=AXIS2_PLACEMENT_3D('',#1329,#1092,#1093);
#870=AXIS2_PLACEMENT_3D('',#1331,#1095,#1096);
#871=AXIS2_PLACEMENT_3D('',#1333,#1098,#1099);
#872=AXIS2_PLACEMENT_3D('',#1335,#1101,#1102);
#873=AXIS2_PLACEMENT_3D('',#1337,#1104,#1105);
#874=AXIS2_PLACEMENT_3D('',#1339,#1107,#1108);
#875=DIRECTION('axis',(0.,0.,1.));
#876=DIRECTION('refdir',(1.,0.,0.));
#877=DIRECTION('center_axis',(0.,0.,1.));
#878=DIRECTION('ref_axis',(-0.707106781186547,0.707106781186547,0.));
#879=DIRECTION('center_axis',(0.,0.,-1.));
#880=DIRECTION('ref_axis',(-0.707106781186547,-0.707106781186547,0.));
#881=DIRECTION('',(0.,0.,1.));
#882=DIRECTION('center_axis',(0.,0.,1.));
#883=DIRECTION('ref_axis',(-0.707106781186547,0.707106781186547,0.));
#884=DIRECTION('',(0.,0.,-1.));
#885=DIRECTION('center_axis',(0.,-1.,0.));
#886=DIRECTION('ref_axis',(1.,0.,0.));
#887=DIRECTION('',(-1.,0.,0.));
#888=DIRECTION('',(0.,0.,-1.));
#889=DIRECTION('',(-1.,0.,0.));
#890=DIRECTION('center_axis',(0.,0.,1.));
#891=DIRECTION('ref_axis',(-0.707106781186547,0.707106781186547,0.));
#892=DIRECTION('center_axis',(0.,0.,-1.));
#893=DIRECTION('ref_axis',(-0.707106781186547,-0.707106781186547,0.));
#894=DIRECTION('',(0.,0.,1.));
#895=DIRECTION('center_axis',(0.,0.,1.));
#896=DIRECTION('ref_axis',(-0.707106781186547,0.707106781186547,0.));
#897=DIRECTION('',(0.,0.,-1.));
#898=DIRECTION('center_axis',(0.,-1.,0.));
#899=DIRECTION('ref_axis',(1.,0.,0.));
#900=DIRECTION('',(-1.,0.,0.));
#901=DIRECTION('',(0.,0.,-1.));
#902=DIRECTION('',(-1.,0.,0.));
#903=DIRECTION('center_axis',(0.,0.,1.));
#904=DIRECTION('ref_axis',(-0.707106781186547,0.707106781186547,0.));
#905=DIRECTION('center_axis',(0.,0.,-1.));
#906=DIRECTION('ref_axis',(-0.707106781186547,-0.707106781186547,0.));
#907=DIRECTION('',(0.,0.,1.));
#908=DIRECTION('center_axis',(0.,0.,1.));
#909=DIRECTION('ref_axis',(-0.707106781186547,0.707106781186547,0.));
#910=DIRECTION('',(0.,0.,-1.));
#911=DIRECTION('center_axis',(0.,-1.,0.));
#912=DIRECTION('ref_axis',(1.,0.,0.));
#913=DIRECTION('',(-1.,0.,0.));
#914=DIRECTION('',(0.,0.,-1.));
#915=DIRECTION('',(-1.,0.,0.));
#916=DIRECTION('center_axis',(0.,0.,1.));
#917=DIRECTION('ref_axis',(-0.707106781186547,0.707106781186547,0.));
#918=DIRECTION('center_axis',(0.,0.,-1.));
#919=DIRECTION('ref_axis',(-0.707106781186547,-0.707106781186547,0.));
#920=DIRECTION('',(0.,0.,1.));
#921=DIRECTION('center_axis',(0.,0.,1.));
#922=DIRECTION('ref_axis',(-0.707106781186547,0.707106781186547,0.));
#923=DIRECTION('',(0.,0.,-1.));
#924=DIRECTION('center_axis',(0.,-1.,0.));
#925=DIRECTION('ref_axis',(1.,0.,0.));
#926=DIRECTION('',(-1.,0.,0.));
#927=DIRECTION('',(0.,0.,-1.));
#928=DIRECTION('',(-1.,0.,0.));
#929=DIRECTION('center_axis',(0.,0.,1.));
#930=DIRECTION('ref_axis',(-0.707106781186547,0.707106781186547,0.));
#931=DIRECTION('center_axis',(0.,0.,-1.));
#932=DIRECTION('ref_axis',(-0.707106781186547,-0.707106781186547,0.));
#933=DIRECTION('',(0.,0.,1.));
#934=DIRECTION('center_axis',(0.,0.,1.));
#935=DIRECTION('ref_axis',(-0.707106781186547,0.707106781186547,0.));
#936=DIRECTION('',(0.,0.,-1.));
#937=DIRECTION('center_axis',(0.,-1.,0.));
#938=DIRECTION('ref_axis',(1.,0.,0.));
#939=DIRECTION('',(-1.,0.,0.));
#940=DIRECTION('',(0.,0.,-1.));
#941=DIRECTION('',(-1.,0.,0.));
#942=DIRECTION('center_axis',(0.,0.,1.));
#943=DIRECTION('ref_axis',(-0.707106781186547,0.707106781186547,0.));
#944=DIRECTION('center_axis',(0.,0.,-1.));
#945=DIRECTION('ref_axis',(-0.707106781186547,-0.707106781186547,0.));
#946=DIRECTION('',(0.,0.,1.));
#947=DIRECTION('center_axis',(0.,0.,1.));
#948=DIRECTION('ref_axis',(-0.707106781186547,0.707106781186547,0.));
#949=DIRECTION('',(0.,0.,-1.));
#950=DIRECTION('center_axis',(0.,-1.,0.));
#951=DIRECTION('ref_axis',(1.,0.,0.));
#952=DIRECTION('',(-1.,0.,0.));
#953=DIRECTION('',(0.,0.,-1.));
#954=DIRECTION('',(-1.,0.,0.));
#955=DIRECTION('center_axis',(0.,0.,1.));
#956=DIRECTION('ref_axis',(-0.707106781186547,0.707106781186547,0.));
#957=DIRECTION('center_axis',(0.,0.,-1.));
#958=DIRECTION('ref_axis',(-0.707106781186547,-0.707106781186547,0.));
#959=DIRECTION('',(0.,0.,1.));
#960=DIRECTION('center_axis',(0.,0.,1.));
#961=DIRECTION('ref_axis',(-0.707106781186547,0.707106781186547,0.));
#962=DIRECTION('',(0.,0.,-1.));
#963=DIRECTION('center_axis',(0.,-1.,0.));
#964=DIRECTION('ref_axis',(1.,0.,0.));
#965=DIRECTION('',(-1.,0.,0.));
#966=DIRECTION('',(0.,0.,-1.));
#967=DIRECTION('',(-1.,0.,0.));
#968=DIRECTION('center_axis',(0.,0.,1.));
#969=DIRECTION('ref_axis',(-0.707106781186547,0.707106781186547,0.));
#970=DIRECTION('center_axis',(0.,0.,-1.));
#971=DIRECTION('ref_axis',(-0.707106781186547,-0.707106781186547,0.));
#972=DIRECTION('',(0.,0.,1.));
#973=DIRECTION('center_axis',(0.,0.,1.));
#974=DIRECTION('ref_axis',(-0.707106781186547,0.707106781186547,0.));
#975=DIRECTION('',(0.,0.,-1.));
#976=DIRECTION('center_axis',(0.,-1.,0.));
#977=DIRECTION('ref_axis',(1.,0.,0.));
#978=DIRECTION('',(-1.,0.,0.));
#979=DIRECTION('',(0.,0.,-1.));
#980=DIRECTION('',(-1.,0.,0.));
#981=DIRECTION('center_axis',(0.,0.,1.));
#982=DIRECTION('ref_axis',(1.,0.,0.));
#983=DIRECTION('center_axis',(0.,0.,1.));
#984=DIRECTION('ref_axis',(0.707106781186547,0.707106781186547,0.));
#985=DIRECTION('',(-1.,0.,0.));
#986=DIRECTION('center_axis',(0.,0.,1.));
#987=DIRECTION('ref_axis',(0.707106781186547,0.707106781186547,0.));
#988=DIRECTION('',(-1.,0.,0.));
#989=DIRECTION('center_axis',(0.,0.,1.));
#990=DIRECTION('ref_axis',(0.707106781186547,0.707106781186547,0.));
#991=DIRECTION('',(-1.,0.,0.));
#992=DIRECTION('center_axis',(0.,0.,1.));
#993=DIRECTION('ref_axis',(0.707106781186547,0.707106781186547,0.));
#994=DIRECTION('',(-1.,0.,0.));
#995=DIRECTION('center_axis',(0.,0.,1.));
#996=DIRECTION('ref_axis',(0.707106781186547,0.707106781186547,0.));
#997=DIRECTION('',(-1.,0.,0.));
#998=DIRECTION('center_axis',(0.,0.,1.));
#999=DIRECTION('ref_axis',(0.707106781186547,0.707106781186547,0.));
#1000=DIRECTION('',(-1.,0.,0.));
#1001=DIRECTION('center_axis',(0.,0.,1.));
#1002=DIRECTION('ref_axis',(0.707106781186547,0.707106781186547,0.));
#1003=DIRECTION('',(-1.,0.,0.));
#1004=DIRECTION('center_axis',(0.,0.,1.));
#1005=DIRECTION('ref_axis',(0.707106781186547,0.707106781186547,0.));
#1006=DIRECTION('',(-1.,0.,0.));
#1007=DIRECTION('center_axis',(0.,0.,1.));
#1008=DIRECTION('ref_axis',(0.707106781186547,0.707106781186547,0.));
#1009=DIRECTION('',(1.,0.,0.));
#1010=DIRECTION('center_axis',(0.,0.,1.));
#1011=DIRECTION('ref_axis',(-0.707106781186547,-0.707106781186547,0.));
#1012=DIRECTION('',(1.0449157878825E-16,-1.,0.));
#1013=DIRECTION('center_axis',(0.,0.,1.));
#1014=DIRECTION('ref_axis',(-0.707106781186547,0.707106781186547,0.));
#1015=DIRECTION('',(-1.,0.,0.));
#1016=DIRECTION('center_axis',(0.,0.,1.));
#1017=DIRECTION('ref_axis',(0.707106781186547,-0.707106781186547,0.));
#1018=DIRECTION('center_axis',(0.,0.,-1.));
#1019=DIRECTION('ref_axis',(0.707106781186547,-0.707106781186547,0.));
#1020=DIRECTION('',(0.,0.,1.));
#1021=DIRECTION('center_axis',(0.,0.,1.));
#1022=DIRECTION('ref_axis',(0.707106781186547,-0.707106781186547,0.));
#1023=DIRECTION('center_axis',(0.,0.,-1.));
#1024=DIRECTION('ref_axis',(0.707106781186547,-0.707106781186547,0.));
#1025=DIRECTION('',(0.,0.,1.));
#1026=DIRECTION('center_axis',(0.,0.,1.));
#1027=DIRECTION('ref_axis',(0.707106781186547,-0.707106781186547,0.));
#1028=DIRECTION('center_axis',(0.,0.,-1.));
#1029=DIRECTION('ref_axis',(0.707106781186547,-0.707106781186547,0.));
#1030=DIRECTION('',(0.,0.,1.));
#1031=DIRECTION('center_axis',(0.,0.,1.));
#1032=DIRECTION('ref_axis',(0.707106781186547,-0.707106781186547,0.));
#1033=DIRECTION('center_axis',(0.,0.,-1.));
#1034=DIRECTION('ref_axis',(0.707106781186547,-0.707106781186547,0.));
#1035=DIRECTION('',(0.,0.,1.));
#1036=DIRECTION('center_axis',(0.,0.,1.));
#1037=DIRECTION('ref_axis',(0.707106781186547,-0.707106781186547,0.));
#1038=DIRECTION('center_axis',(0.,0.,-1.));
#1039=DIRECTION('ref_axis',(0.707106781186547,-0.707106781186547,0.));
#1040=DIRECTION('',(0.,0.,1.));
#1041=DIRECTION('center_axis',(0.,0.,1.));
#1042=DIRECTION('ref_axis',(0.707106781186547,-0.707106781186547,0.));
#1043=DIRECTION('center_axis',(0.,0.,-1.));
#1044=DIRECTION('ref_axis',(0.707106781186547,-0.707106781186547,0.));
#1045=DIRECTION('',(0.,0.,1.));
#1046=DIRECTION('center_axis',(0.,0.,1.));
#1047=DIRECTION('ref_axis',(0.707106781186547,-0.707106781186547,0.));
#1048=DIRECTION('center_axis',(0.,0.,-1.));
#1049=DIRECTION('ref_axis',(0.707106781186547,-0.707106781186547,0.));
#1050=DIRECTION('',(0.,0.,1.));
#1051=DIRECTION('center_axis',(0.,0.,1.));
#1052=DIRECTION('ref_axis',(0.707106781186547,-0.707106781186547,0.));
#1053=DIRECTION('center_axis',(0.,0.,-1.));
#1054=DIRECTION('ref_axis',(0.707106781186547,-0.707106781186547,0.));
#1055=DIRECTION('',(0.,0.,1.));
#1056=DIRECTION('center_axis',(0.,0.,1.));
#1057=DIRECTION('ref_axis',(0.707106781186547,-0.707106781186547,0.));
#1058=DIRECTION('center_axis',(0.,0.,-1.));
#1059=DIRECTION('ref_axis',(0.707106781186547,-0.707106781186547,0.));
#1060=DIRECTION('',(0.,0.,-1.));
#1061=DIRECTION('',(0.,0.,1.));
#1062=DIRECTION('center_axis',(0.,0.,1.));
#1063=DIRECTION('ref_axis',(-0.707106781186547,0.707106781186547,0.));
#1064=DIRECTION('center_axis',(0.,0.,-1.));
#1065=DIRECTION('ref_axis',(-0.707106781186547,0.707106781186547,0.));
#1066=DIRECTION('',(0.,0.,-1.));
#1067=DIRECTION('',(0.,0.,1.));
#1068=DIRECTION('center_axis',(-1.,-1.0449157878825E-16,0.));
#1069=DIRECTION('ref_axis',(1.0449157878825E-16,-1.,0.));
#1070=DIRECTION('',(0.,0.,-1.));
#1071=DIRECTION('',(-1.0449157878825E-16,1.,0.));
#1072=DIRECTION('center_axis',(0.,0.,1.));
#1073=DIRECTION('ref_axis',(-0.707106781186547,-0.707106781186547,0.));
#1074=DIRECTION('center_axis',(0.,0.,-1.));
#1075=DIRECTION('ref_axis',(-0.707106781186547,-0.707106781186547,0.));
#1076=DIRECTION('',(0.,0.,1.));
#1077=DIRECTION('center_axis',(0.,1.,0.));
#1078=DIRECTION('ref_axis',(-1.,0.,0.));
#1079=DIRECTION('',(1.,0.,0.));
#1080=DIRECTION('center_axis',(0.,1.,0.));
#1081=DIRECTION('ref_axis',(-1.,0.,0.));
#1082=DIRECTION('',(1.,0.,0.));
#1083=DIRECTION('center_axis',(0.,1.,0.));
#1084=DIRECTION('ref_axis',(-1.,0.,0.));
#1085=DIRECTION('',(1.,0.,0.));
#1086=DIRECTION('center_axis',(0.,-1.,0.));
#1087=DIRECTION('ref_axis',(1.,0.,0.));
#1088=DIRECTION('',(-1.,0.,0.));
#1089=DIRECTION('center_axis',(0.,1.,0.));
#1090=DIRECTION('ref_axis',(-1.,0.,0.));
#1091=DIRECTION('',(1.,0.,0.));
#1092=DIRECTION('center_axis',(0.,1.,0.));
#1093=DIRECTION('ref_axis',(-1.,0.,0.));
#1094=DIRECTION('',(1.,0.,0.));
#1095=DIRECTION('center_axis',(0.,1.,0.));
#1096=DIRECTION('ref_axis',(-1.,0.,0.));
#1097=DIRECTION('',(1.,0.,0.));
#1098=DIRECTION('center_axis',(0.,1.,0.));
#1099=DIRECTION('ref_axis',(-1.,0.,0.));
#1100=DIRECTION('',(1.,0.,0.));
#1101=DIRECTION('center_axis',(0.,1.,0.));
#1102=DIRECTION('ref_axis',(-1.,0.,0.));
#1103=DIRECTION('',(1.,0.,0.));
#1104=DIRECTION('center_axis',(0.,1.,0.));
#1105=DIRECTION('ref_axis',(-1.,0.,0.));
#1106=DIRECTION('',(1.,0.,0.));
#1107=DIRECTION('center_axis',(0.,0.,1.));
#1108=DIRECTION('ref_axis',(1.,0.,0.));
#1109=CARTESIAN_POINT('',(0.,0.,0.));
#1110=CARTESIAN_POINT('Origin',(-56.9022668637429,-150.14637078225,0.));
#1111=CARTESIAN_POINT('',(-56.9022668637429,-155.14637078225,0.));
#1112=CARTESIAN_POINT('',(-56.9022668637429,-145.14637078225,0.));
#1113=CARTESIAN_POINT('Origin',(-56.9022668637429,-150.14637078225,0.));
#1114=CARTESIAN_POINT('',(-56.9022668637429,-145.14637078225,280.));
#1115=CARTESIAN_POINT('',(-56.9022668637429,-145.14637078225,0.));
#1116=CARTESIAN_POINT('',(-56.9022668637429,-155.14637078225,280.));
#1117=CARTESIAN_POINT('Origin',(-56.9022668637429,-150.14637078225,280.));
#1118=CARTESIAN_POINT('',(-56.9022668637429,-155.14637078225,0.));
#1119=CARTESIAN_POINT('Origin',(-61.9022668637429,-145.14637078225,0.));
#1120=CARTESIAN_POINT('',(93.0977331362571,-145.14637078225,0.));
#1121=CARTESIAN_POINT('',(98.0977331362571,-145.14637078225,0.));
#1122=CARTESIAN_POINT('',(93.0977331362571,-145.14637078225,280.));
#1123=CARTESIAN_POINT('',(93.0977331362571,-145.14637078225,0.));
#1124=CARTESIAN_POINT('',(-26.9022668637429,-145.14637078225,280.));
#1125=CARTESIAN_POINT('Origin',(-56.9022668637429,-170.14637078225,0.));
#1126=CARTESIAN_POINT('',(-56.9022668637429,-175.14637078225,0.));
#1127=CARTESIAN_POINT('',(-56.9022668637429,-165.14637078225,0.));
#1128=CARTESIAN_POINT('Origin',(-56.9022668637429,-170.14637078225,0.));
#1129=CARTESIAN_POINT('',(-56.9022668637429,-165.14637078225,280.));
#1130=CARTESIAN_POINT('',(-56.9022668637429,-165.14637078225,0.));
#1131=CARTESIAN_POINT('',(-56.9022668637429,-175.14637078225,280.));
#1132=CARTESIAN_POINT('Origin',(-56.9022668637429,-170.14637078225,280.));
#1133=CARTESIAN_POINT('',(-56.9022668637429,-175.14637078225,0.));
#1134=CARTESIAN_POINT('Origin',(-61.9022668637429,-165.14637078225,0.));
#1135=CARTESIAN_POINT('',(93.0977331362571,-165.14637078225,0.));
#1136=CARTESIAN_POINT('',(98.0977331362571,-165.14637078225,0.));
#1137=CARTESIAN_POINT('',(93.0977331362571,-165.14637078225,280.));
#1138=CARTESIAN_POINT('',(93.0977331362571,-165.14637078225,0.));
#1139=CARTESIAN_POINT('',(-26.9022668637429,-165.14637078225,280.));
#1140=CARTESIAN_POINT('Origin',(-56.9022668637429,-190.14637078225,0.));
#1141=CARTESIAN_POINT('',(-56.9022668637429,-195.14637078225,0.));
#1142=CARTESIAN_POINT('',(-56.9022668637429,-185.14637078225,0.));
#1143=CARTESIAN_POINT('Origin',(-56.9022668637429,-190.14637078225,0.));
#1144=CARTESIAN_POINT('',(-56.9022668637429,-185.14637078225,280.));
#1145=CARTESIAN_POINT('',(-56.9022668637429,-185.14637078225,0.));
#1146=CARTESIAN_POINT('',(-56.9022668637429,-195.14637078225,280.));
#1147=CARTESIAN_POINT('Origin',(-56.9022668637429,-190.14637078225,280.));
#1148=CARTESIAN_POINT('',(-56.9022668637429,-195.14637078225,0.));
#1149=CARTESIAN_POINT('Origin',(-61.9022668637429,-185.14637078225,0.));
#1150=CARTESIAN_POINT('',(93.0977331362571,-185.14637078225,0.));
#1151=CARTESIAN_POINT('',(98.0977331362571,-185.14637078225,0.));
#1152=CARTESIAN_POINT('',(93.0977331362571,-185.14637078225,280.));
#1153=CARTESIAN_POINT('',(93.0977331362571,-185.14637078225,0.));
#1154=CARTESIAN_POINT('',(-26.9022668637429,-185.14637078225,280.));
#1155=CARTESIAN_POINT('Origin',(-56.9022668637429,-210.14637078225,0.));
#1156=CARTESIAN_POINT('',(-56.9022668637429,-215.14637078225,0.));
#1157=CARTESIAN_POINT('',(-56.9022668637429,-205.14637078225,0.));
#1158=CARTESIAN_POINT('Origin',(-56.9022668637429,-210.14637078225,0.));
#1159=CARTESIAN_POINT('',(-56.9022668637429,-205.14637078225,280.));
#1160=CARTESIAN_POINT('',(-56.9022668637429,-205.14637078225,0.));
#1161=CARTESIAN_POINT('',(-56.9022668637429,-215.14637078225,280.));
#1162=CARTESIAN_POINT('Origin',(-56.9022668637429,-210.14637078225,280.));
#1163=CARTESIAN_POINT('',(-56.9022668637429,-215.14637078225,0.));
#1164=CARTESIAN_POINT('Origin',(-61.9022668637429,-205.14637078225,0.));
#1165=CARTESIAN_POINT('',(93.0977331362571,-205.14637078225,0.));
#1166=CARTESIAN_POINT('',(98.0977331362571,-205.14637078225,0.));
#1167=CARTESIAN_POINT('',(93.0977331362571,-205.14637078225,280.));
#1168=CARTESIAN_POINT('',(93.0977331362571,-205.14637078225,0.));
#1169=CARTESIAN_POINT('',(-26.9022668637429,-205.14637078225,280.));
#1170=CARTESIAN_POINT('Origin',(-56.9022668637429,-230.14637078225,0.));
#1171=CARTESIAN_POINT('',(-56.9022668637429,-235.14637078225,0.));
#1172=CARTESIAN_POINT('',(-56.9022668637429,-225.14637078225,0.));
#1173=CARTESIAN_POINT('Origin',(-56.9022668637429,-230.14637078225,0.));
#1174=CARTESIAN_POINT('',(-56.9022668637429,-225.14637078225,280.));
#1175=CARTESIAN_POINT('',(-56.9022668637429,-225.14637078225,0.));
#1176=CARTESIAN_POINT('',(-56.9022668637429,-235.14637078225,280.));
#1177=CARTESIAN_POINT('Origin',(-56.9022668637429,-230.14637078225,280.));
#1178=CARTESIAN_POINT('',(-56.9022668637429,-235.14637078225,0.));
#1179=CARTESIAN_POINT('Origin',(-61.9022668637429,-225.14637078225,0.));
#1180=CARTESIAN_POINT('',(93.0977331362571,-225.14637078225,0.));
#1181=CARTESIAN_POINT('',(98.0977331362571,-225.14637078225,0.));
#1182=CARTESIAN_POINT('',(93.0977331362571,-225.14637078225,280.));
#1183=CARTESIAN_POINT('',(93.0977331362571,-225.14637078225,0.));
#1184=CARTESIAN_POINT('',(-26.9022668637429,-225.14637078225,280.));
#1185=CARTESIAN_POINT('Origin',(-56.9022668637429,-250.14637078225,0.));
#1186=CARTESIAN_POINT('',(-56.9022668637429,-255.14637078225,0.));
#1187=CARTESIAN_POINT('',(-56.9022668637429,-245.14637078225,0.));
#1188=CARTESIAN_POINT('Origin',(-56.9022668637429,-250.14637078225,0.));
#1189=CARTESIAN_POINT('',(-56.9022668637429,-245.14637078225,280.));
#1190=CARTESIAN_POINT('',(-56.9022668637429,-245.14637078225,0.));
#1191=CARTESIAN_POINT('',(-56.9022668637429,-255.14637078225,280.));
#1192=CARTESIAN_POINT('Origin',(-56.9022668637429,-250.14637078225,280.));
#1193=CARTESIAN_POINT('',(-56.9022668637429,-255.14637078225,0.));
#1194=CARTESIAN_POINT('Origin',(-61.9022668637429,-245.14637078225,0.));
#1195=CARTESIAN_POINT('',(93.0977331362571,-245.14637078225,0.));
#1196=CARTESIAN_POINT('',(98.0977331362571,-245.14637078225,0.));
#1197=CARTESIAN_POINT('',(93.0977331362571,-245.14637078225,280.));
#1198=CARTESIAN_POINT('',(93.0977331362571,-245.14637078225,0.));
#1199=CARTESIAN_POINT('',(-26.9022668637429,-245.14637078225,280.));
#1200=CARTESIAN_POINT('Origin',(-56.9022668637429,-270.14637078225,0.));
#1201=CARTESIAN_POINT('',(-56.9022668637429,-275.14637078225,0.));
#1202=CARTESIAN_POINT('',(-56.9022668637429,-265.14637078225,0.));
#1203=CARTESIAN_POINT('Origin',(-56.9022668637429,-270.14637078225,0.));
#1204=CARTESIAN_POINT('',(-56.9022668637429,-265.14637078225,280.));
#1205=CARTESIAN_POINT('',(-56.9022668637429,-265.14637078225,0.));
#1206=CARTESIAN_POINT('',(-56.9022668637429,-275.14637078225,280.));
#1207=CARTESIAN_POINT('Origin',(-56.9022668637429,-270.14637078225,280.));
#1208=CARTESIAN_POINT('',(-56.9022668637429,-275.14637078225,0.));
#1209=CARTESIAN_POINT('Origin',(-61.9022668637429,-265.14637078225,0.));
#1210=CARTESIAN_POINT('',(93.0977331362571,-265.14637078225,0.));
#1211=CARTESIAN_POINT('',(98.0977331362571,-265.14637078225,0.));
#1212=CARTESIAN_POINT('',(93.0977331362571,-265.14637078225,280.));
#1213=CARTESIAN_POINT('',(93.0977331362571,-265.14637078225,0.));
#1214=CARTESIAN_POINT('',(-26.9022668637429,-265.14637078225,280.));
#1215=CARTESIAN_POINT('Origin',(-56.9022668637429,-290.14637078225,0.));
#1216=CARTESIAN_POINT('',(-56.9022668637429,-295.14637078225,0.));
#1217=CARTESIAN_POINT('',(-56.9022668637429,-285.14637078225,0.));
#1218=CARTESIAN_POINT('Origin',(-56.9022668637429,-290.14637078225,0.));
#1219=CARTESIAN_POINT('',(-56.9022668637429,-285.14637078225,280.));
#1220=CARTESIAN_POINT('',(-56.9022668637429,-285.14637078225,0.));
#1221=CARTESIAN_POINT('',(-56.9022668637429,-295.14637078225,280.));
#1222=CARTESIAN_POINT('Origin',(-56.9022668637429,-290.14637078225,280.));
#1223=CARTESIAN_POINT('',(-56.9022668637429,-295.14637078225,0.));
#1224=CARTESIAN_POINT('Origin',(-61.9022668637429,-285.14637078225,0.));
#1225=CARTESIAN_POINT('',(93.0977331362571,-285.14637078225,0.));
#1226=CARTESIAN_POINT('',(98.0977331362571,-285.14637078225,0.));
#1227=CARTESIAN_POINT('',(93.0977331362571,-285.14637078225,280.));
#1228=CARTESIAN_POINT('',(93.0977331362571,-285.14637078225,0.));
#1229=CARTESIAN_POINT('',(-26.9022668637429,-285.14637078225,280.));
#1230=CARTESIAN_POINT('Origin',(8.09773313625712,-220.14637078225,0.));
#1231=CARTESIAN_POINT('',(93.0977331362571,-135.14637078225,0.));
#1232=CARTESIAN_POINT('Origin',(93.0977331362571,-140.14637078225,0.));
#1233=CARTESIAN_POINT('',(93.0977331362571,-155.14637078225,0.));
#1234=CARTESIAN_POINT('',(98.0977331362571,-155.14637078225,0.));
#1235=CARTESIAN_POINT('Origin',(93.0977331362571,-160.14637078225,0.));
#1236=CARTESIAN_POINT('',(93.0977331362571,-175.14637078225,0.));
#1237=CARTESIAN_POINT('',(98.0977331362571,-175.14637078225,0.));
#1238=CARTESIAN_POINT('Origin',(93.0977331362571,-180.14637078225,0.));
#1239=CARTESIAN_POINT('',(93.0977331362571,-195.14637078225,0.));
#1240=CARTESIAN_POINT('',(98.0977331362571,-195.14637078225,0.));
#1241=CARTESIAN_POINT('Origin',(93.0977331362571,-200.14637078225,0.));
#1242=CARTESIAN_POINT('',(93.0977331362571,-215.14637078225,0.));
#1243=CARTESIAN_POINT('',(98.0977331362571,-215.14637078225,0.));
#1244=CARTESIAN_POINT('Origin',(93.0977331362571,-220.14637078225,0.));
#1245=CARTESIAN_POINT('',(93.0977331362571,-235.14637078225,0.));
#1246=CARTESIAN_POINT('',(98.0977331362571,-235.14637078225,0.));
#1247=CARTESIAN_POINT('Origin',(93.0977331362571,-240.14637078225,0.));
#1248=CARTESIAN_POINT('',(93.0977331362571,-255.14637078225,0.));
#1249=CARTESIAN_POINT('',(98.0977331362571,-255.14637078225,0.));
#1250=CARTESIAN_POINT('Origin',(93.0977331362571,-260.14637078225,0.));
#1251=CARTESIAN_POINT('',(93.0977331362571,-275.14637078225,0.));
#1252=CARTESIAN_POINT('',(98.0977331362571,-275.14637078225,0.));
#1253=CARTESIAN_POINT('Origin',(93.0977331362571,-280.14637078225,0.));
#1254=CARTESIAN_POINT('',(93.0977331362571,-295.14637078225,0.));
#1255=CARTESIAN_POINT('',(98.0977331362571,-295.14637078225,0.));
#1256=CARTESIAN_POINT('',(93.0977331362571,-305.14637078225,0.));
#1257=CARTESIAN_POINT('Origin',(93.0977331362571,-300.14637078225,0.));
#1258=CARTESIAN_POINT('',(-61.9022668637429,-305.14637078225,0.));
#1259=CARTESIAN_POINT('',(-81.9022668637429,-305.14637078225,0.));
#1260=CARTESIAN_POINT('',(-81.9022668637429,-285.14637078225,0.));
#1261=CARTESIAN_POINT('Origin',(-61.9022668637429,-285.14637078225,0.));
#1262=CARTESIAN_POINT('',(-81.9022668637429,-155.14637078225,0.));
#1263=CARTESIAN_POINT('',(-81.9022668637429,-135.14637078225,0.));
#1264=CARTESIAN_POINT('',(-61.9022668637429,-135.14637078225,0.));
#1265=CARTESIAN_POINT('Origin',(-61.9022668637429,-155.14637078225,0.));
#1266=CARTESIAN_POINT('',(98.0977331362571,-135.14637078225,0.));
#1267=CARTESIAN_POINT('Origin',(93.0977331362571,-140.14637078225,0.));
#1268=CARTESIAN_POINT('',(93.0977331362571,-135.14637078225,280.));
#1269=CARTESIAN_POINT('Origin',(93.0977331362571,-140.14637078225,280.));
#1270=CARTESIAN_POINT('',(93.0977331362571,-135.14637078225,0.));
#1271=CARTESIAN_POINT('Origin',(93.0977331362571,-160.14637078225,0.));
#1272=CARTESIAN_POINT('',(93.0977331362571,-155.14637078225,280.));
#1273=CARTESIAN_POINT('Origin',(93.0977331362571,-160.14637078225,280.));
#1274=CARTESIAN_POINT('',(93.0977331362571,-155.14637078225,0.));
#1275=CARTESIAN_POINT('Origin',(93.0977331362571,-180.14637078225,0.));
#1276=CARTESIAN_POINT('',(93.0977331362571,-175.14637078225,280.));
#1277=CARTESIAN_POINT('Origin',(93.0977331362571,-180.14637078225,280.));
#1278=CARTESIAN_POINT('',(93.0977331362571,-175.14637078225,0.));
#1279=CARTESIAN_POINT('Origin',(93.0977331362571,-200.14637078225,0.));
#1280=CARTESIAN_POINT('',(93.0977331362571,-195.14637078225,280.));
#1281=CARTESIAN_POINT('Origin',(93.0977331362571,-200.14637078225,280.));
#1282=CARTESIAN_POINT('',(93.0977331362571,-195.14637078225,0.));
#1283=CARTESIAN_POINT('Origin',(93.0977331362571,-220.14637078225,0.));
#1284=CARTESIAN_POINT('',(93.0977331362571,-215.14637078225,280.));
#1285=CARTESIAN_POINT('Origin',(93.0977331362571,-220.14637078225,280.));
#1286=CARTESIAN_POINT('',(93.0977331362571,-215.14637078225,0.));
#1287=CARTESIAN_POINT('Origin',(93.0977331362571,-240.14637078225,0.));
#1288=CARTESIAN_POINT('',(93.0977331362571,-235.14637078225,280.));
#1289=CARTESIAN_POINT('Origin',(93.0977331362571,-240.14637078225,280.));
#1290=CARTESIAN_POINT('',(93.0977331362571,-235.14637078225,0.));
#1291=CARTESIAN_POINT('Origin',(93.0977331362571,-260.14637078225,0.));
#1292=CARTESIAN_POINT('',(93.0977331362571,-255.14637078225,280.));
#1293=CARTESIAN_POINT('Origin',(93.0977331362571,-260.14637078225,280.));
#1294=CARTESIAN_POINT('',(93.0977331362571,-255.14637078225,0.));
#1295=CARTESIAN_POINT('Origin',(93.0977331362571,-280.14637078225,0.));
#1296=CARTESIAN_POINT('',(93.0977331362571,-275.14637078225,280.));
#1297=CARTESIAN_POINT('Origin',(93.0977331362571,-280.14637078225,280.));
#1298=CARTESIAN_POINT('',(93.0977331362571,-275.14637078225,0.));
#1299=CARTESIAN_POINT('Origin',(93.0977331362571,-300.14637078225,0.));
#1300=CARTESIAN_POINT('',(93.0977331362571,-295.14637078225,280.));
#1301=CARTESIAN_POINT('',(93.0977331362571,-305.14637078225,280.));
#1302=CARTESIAN_POINT('Origin',(93.0977331362571,-300.14637078225,280.));
#1303=CARTESIAN_POINT('',(93.0977331362571,-305.14637078225,0.));
#1304=CARTESIAN_POINT('',(93.0977331362571,-295.14637078225,0.));
#1305=CARTESIAN_POINT('Origin',(-61.9022668637429,-155.14637078225,0.));
#1306=CARTESIAN_POINT('',(-81.9022668637429,-155.14637078225,280.));
#1307=CARTESIAN_POINT('',(-61.9022668637429,-135.14637078225,280.));
#1308=CARTESIAN_POINT('Origin',(-61.9022668637429,-155.14637078225,280.));
#1309=CARTESIAN_POINT('',(-61.9022668637429,-135.14637078225,0.));
#1310=CARTESIAN_POINT('',(-81.9022668637429,-155.14637078225,0.));
#1311=CARTESIAN_POINT('Origin',(-81.9022668637429,-135.14637078225,0.));
#1312=CARTESIAN_POINT('',(-81.9022668637429,-285.14637078225,280.));
#1313=CARTESIAN_POINT('',(-81.9022668637429,-285.14637078225,0.));
#1314=CARTESIAN_POINT('',(-81.9022668637429,-177.64637078225,280.));
#1315=CARTESIAN_POINT('Origin',(-61.9022668637429,-285.14637078225,0.));
#1316=CARTESIAN_POINT('',(-61.9022668637429,-305.14637078225,280.));
#1317=CARTESIAN_POINT('Origin',(-61.9022668637429,-285.14637078225,280.));
#1318=CARTESIAN_POINT('',(-61.9022668637429,-305.14637078225,0.));
#1319=CARTESIAN_POINT('Origin',(98.0977331362571,-255.14637078225,0.));
#1320=CARTESIAN_POINT('',(53.0977331362571,-255.14637078225,280.));
#1321=CARTESIAN_POINT('Origin',(98.0977331362571,-275.14637078225,0.));
#1322=CARTESIAN_POINT('',(53.0977331362571,-275.14637078225,280.));
#1323=CARTESIAN_POINT('Origin',(98.0977331362571,-295.14637078225,0.));
#1324=CARTESIAN_POINT('',(53.0977331362571,-295.14637078225,280.));
#1325=CARTESIAN_POINT('Origin',(-81.9022668637429,-305.14637078225,0.));
#1326=CARTESIAN_POINT('',(-36.9022668637429,-305.14637078225,280.));
#1327=CARTESIAN_POINT('Origin',(98.0977331362571,-135.14637078225,0.));
#1328=CARTESIAN_POINT('',(53.0977331362571,-135.14637078225,280.));
#1329=CARTESIAN_POINT('Origin',(98.0977331362571,-155.14637078225,0.));
#1330=CARTESIAN_POINT('',(53.0977331362571,-155.14637078225,280.));
#1331=CARTESIAN_POINT('Origin',(98.0977331362571,-175.14637078225,0.));
#1332=CARTESIAN_POINT('',(53.0977331362571,-175.14637078225,280.));
#1333=CARTESIAN_POINT('Origin',(98.0977331362571,-195.14637078225,0.));
#1334=CARTESIAN_POINT('',(53.0977331362571,-195.14637078225,280.));
#1335=CARTESIAN_POINT('Origin',(98.0977331362571,-215.14637078225,0.));
#1336=CARTESIAN_POINT('',(53.0977331362571,-215.14637078225,280.));
#1337=CARTESIAN_POINT('Origin',(98.0977331362571,-235.14637078225,0.));
#1338=CARTESIAN_POINT('',(53.0977331362571,-235.14637078225,280.));
#1339=CARTESIAN_POINT('Origin',(8.0977331362571,-220.14637078225,280.));
#1340=UNCERTAINTY_MEASURE_WITH_UNIT(LENGTH_MEASURE(0.01),#1344,
'DISTANCE_ACCURACY_VALUE',
'Maximum model space distance between geometric entities at asserted c
onnectivities');
#1341=UNCERTAINTY_MEASURE_WITH_UNIT(LENGTH_MEASURE(0.01),#1344,
'DISTANCE_ACCURACY_VALUE',
'Maximum model space distance between geometric entities at asserted c
onnectivities');
#1342=(
GEOMETRIC_REPRESENTATION_CONTEXT(3)
GLOBAL_UNCERTAINTY_ASSIGNED_CONTEXT((#1340))
GLOBAL_UNIT_ASSIGNED_CONTEXT((#1344,#1346,#1347))
REPRESENTATION_CONTEXT('','3D')
);
#1343=(
GEOMETRIC_REPRESENTATION_CONTEXT(3)
GLOBAL_UNCERTAINTY_ASSIGNED_CONTEXT((#1341))
GLOBAL_UNIT_ASSIGNED_CONTEXT((#1344,#1346,#1347))
REPRESENTATION_CONTEXT('','3D')
);
#1344=(
LENGTH_UNIT()
NAMED_UNIT(*)
SI_UNIT(.MILLI.,.METRE.)
);
#1345=(
LENGTH_UNIT()
NAMED_UNIT(*)
SI_UNIT($,.METRE.)
);
#1346=(
NAMED_UNIT(*)
PLANE_ANGLE_UNIT()
SI_UNIT($,.RADIAN.)
);
#1347=(
NAMED_UNIT(*)
SI_UNIT($,.STERADIAN.)
SOLID_ANGLE_UNIT()
);
#1348=SHAPE_DEFINITION_REPRESENTATION(#1349,#1350);
#1349=PRODUCT_DEFINITION_SHAPE('',$,#1352);
#1350=SHAPE_REPRESENTATION('',(#796),#1342);
#1351=PRODUCT_DEFINITION_CONTEXT('part definition',#1356,'design');
#1352=PRODUCT_DEFINITION('FusionComponent','FusionComponent',#1353,#1351);
#1353=PRODUCT_DEFINITION_FORMATION('',$,#1358);
#1354=PRODUCT_RELATED_PRODUCT_CATEGORY('FusionComponent',
'FusionComponent',(#1358));
#1355=APPLICATION_PROTOCOL_DEFINITION('international standard',
'automotive_design',2009,#1356);
#1356=APPLICATION_CONTEXT(
'Core Data for Automotive Mechanical Design Process');
#1357=PRODUCT_CONTEXT('part definition',#1356,'mechanical');
#1358=PRODUCT('FusionComponent','FusionComponent',$,(#1357));
#1359=PRESENTATION_STYLE_ASSIGNMENT((#1360));
#1360=SURFACE_STYLE_USAGE(.BOTH.,#1361);
#1361=SURFACE_SIDE_STYLE('',(#1362));
#1362=SURFACE_STYLE_FILL_AREA(#1363);
#1363=FILL_AREA_STYLE('ABS (White)',(#1364));
#1364=FILL_AREA_STYLE_COLOUR('ABS (White)',#1365);
#1365=COLOUR_RGB('ABS (White)',0.964705882352941,0.964705882352941,0.952941176470588);
ENDSEC;
END-ISO-10303-21;
